<svg width="24" height="17" viewBox="0 0 24 17" fill="none" xmlns="http://www.w3.org/2000/svg">
<path d="M24.681 8.17601C24.646 8.09701 23.799 6.218 21.916 4.335C19.407 1.826 16.238 0.5 12.75 0.5C9.262 0.5 6.09299 1.826 3.58399 4.335C1.70099 6.218 0.84999 8.10001 0.81899 8.17601C0.773504 8.27832 0.75 8.38904 0.75 8.501C0.75 8.61297 0.773504 8.72369 0.81899 8.82601C0.85399 8.90501 1.70099 10.783 3.58399 12.666C6.09299 15.174 9.262 16.5 12.75 16.5C16.238 16.5 19.407 15.174 21.916 12.666C23.799 10.783 24.646 8.90501 24.681 8.82601C24.7265 8.72369 24.75 8.61297 24.75 8.501C24.75 8.38904 24.7265 8.27832 24.681 8.17601ZM12.75 14.9C9.672 14.9 6.983 13.781 4.75699 11.575C3.84364 10.6667 3.06658 9.63096 2.44999 8.50001C3.06641 7.36894 3.84349 6.33318 4.75699 5.425C6.983 3.219 9.672 2.1 12.75 2.1C15.828 2.1 18.517 3.219 20.743 5.425C21.6581 6.33296 22.4369 7.36872 23.055 8.50001C22.334 9.84601 19.193 14.9 12.75 14.9ZM12.75 3.7C11.8006 3.7 10.8726 3.98152 10.0833 4.50895C9.2939 5.03638 8.67868 5.78604 8.31537 6.66312C7.95207 7.54021 7.85702 8.50533 8.04223 9.43644C8.22744 10.3675 8.68459 11.2228 9.35588 11.8941C10.0272 12.5654 10.8825 13.0226 11.8136 13.2078C12.7447 13.393 13.7098 13.2979 14.5869 12.9346C15.464 12.5713 16.2136 11.9561 16.7411 11.1667C17.2685 10.3774 17.55 9.44936 17.55 8.50001C17.5487 7.22737 17.0425 6.00724 16.1427 5.10735C15.2428 4.20746 14.0226 3.70133 12.75 3.7ZM12.75 11.7C12.1171 11.7 11.4984 11.5123 10.9722 11.1607C10.4459 10.8091 10.0358 10.3093 9.79358 9.72459C9.55138 9.13987 9.48801 8.49646 9.61148 7.87572C9.73496 7.25498 10.0397 6.68479 10.4873 6.23726C10.9348 5.78973 11.505 5.48496 12.1257 5.36149C12.7465 5.23802 13.3899 5.30139 13.9746 5.54359C14.5593 5.78579 15.0591 6.19594 15.4107 6.72218C15.7623 7.24842 15.95 7.8671 15.95 8.50001C15.95 9.3487 15.6129 10.1626 15.0127 10.7627C14.4126 11.3629 13.5987 11.7 12.75 11.7Z" fill="#0D3B66" fill-opacity="0.5"/>
</svg>
